<svg width="44" height="43" viewBox="0 0 44 43" fill="none" xmlns="http://www.w3.org/2000/svg">
<path d="M33 36H42M42 36L37 31M42 36L37 41M22 2L17 7L22 12" stroke="#BEDD2A" stroke-width="3" stroke-linecap="round" stroke-linejoin="round"/>
<path d="M19 7C22.9782 7 26.7936 8.58035 29.6066 11.3934C32.4196 14.2064 34 18.0218 34 22C34 25.9782 32.4196 29.7936 29.6066 32.6066C26.7936 35.4196 22.9782 37 19 37H2" stroke="#BEDD2A" stroke-width="3" stroke-linecap="round" stroke-linejoin="round"/>
<path d="M11.512 9C9.22807 10.3158 7.33119 12.2102 6.01241 14.4925C4.69363 16.7747 3.99953 19.3641 4 22C4 25.376 5.116 28.492 7 31" stroke="#BEDD2A" stroke-width="3" stroke-linecap="round" stroke-linejoin="round"/>
</svg>
