<svg width="48" height="48" viewBox="0 0 48 48" fill="none" xmlns="http://www.w3.org/2000/svg">
<path d="M44.448 11.662L24.46 0.121973C24.3196 0.0404817 24.1602 -0.00244141 23.998 -0.00244141C23.8357 -0.00244141 23.6763 0.0404817 23.536 0.121973L3.55197 11.662C3.41126 11.7427 3.29441 11.8593 3.21327 11.9998C3.13214 12.1403 3.0896 12.2997 3.08997 12.462V35.538C3.08997 35.868 3.26597 36.174 3.54997 36.338L23.536 47.878C23.6763 47.9595 23.8357 48.0024 23.998 48.0024C24.1602 48.0024 24.3196 47.9595 24.46 47.878L44.446 36.338C44.5863 36.257 44.7028 36.1403 44.7835 35.9998C44.8643 35.8593 44.9065 35.7 44.906 35.538V12.462C44.9065 12.2999 44.8643 12.1406 44.7835 12.0001C44.7028 11.8596 44.5863 11.743 44.446 11.662M43.186 35.078L24 46.154L4.81397 35.076V12.924L24 1.84597L43.186 12.924V35.078ZM22.59 16.37C23.3646 15.8153 24.1733 15.376 25.016 15.052C26.28 14.566 26.702 14.566 27.542 14.566C28.062 14.566 28.5466 14.6413 28.996 14.792C29.4466 14.944 29.836 15.1626 30.164 15.448C30.656 15.876 30.752 16.088 30.944 16.512C31.1333 16.936 31.228 17.4206 31.228 17.966C31.228 18.6246 31.098 19.278 30.838 19.926C30.578 20.5753 30.23 21.1766 29.794 21.73C29.14 22.56 28.854 22.77 28.282 23.184C27.71 23.598 27.118 23.898 26.502 24.08L26.23 23.626C26.5971 23.4452 26.9344 23.2091 27.23 22.926C27.5326 22.6401 27.795 22.3144 28.01 21.958C28.2246 21.598 28.3913 21.2173 28.51 20.816C28.6257 20.4169 28.6842 20.0035 28.684 19.588C28.684 19.112 28.6146 18.662 28.476 18.238C28.3486 17.831 28.1412 17.4536 27.866 17.128C27.5953 16.8082 27.2563 16.5533 26.874 16.382C26.4466 16.1933 25.9831 16.1004 25.516 16.11C24.8933 16.11 24.3226 16.2313 23.804 16.474C23.284 16.714 22.8166 17.0406 22.402 17.454C21.78 18.074 21.624 18.334 21.318 18.868C21.0117 19.4012 20.7553 19.9616 20.552 20.542C20.3505 21.1191 20.1967 21.7117 20.092 22.314C19.988 22.9113 19.936 23.474 19.936 24.002C19.936 24.538 19.992 25.0913 20.104 25.662C20.272 26.52 20.382 26.798 20.598 27.352C20.814 27.9053 21.082 28.4286 21.402 28.922C21.722 29.4153 22.092 29.848 22.512 30.22C22.928 30.5896 23.4007 30.8901 23.912 31.11C24.4293 31.33 24.99 31.44 25.594 31.44C26.01 31.44 26.4146 31.384 26.808 31.272C27.2012 31.1591 27.5818 31.0063 27.944 30.816C28.3102 30.6273 28.656 30.4015 28.976 30.142C29.2979 29.8843 29.5995 29.6021 29.878 29.298L30.308 29.714C29.928 30.2153 29.4753 30.6973 28.95 31.16C28.4259 31.6243 27.8586 32.0375 27.256 32.394C26.6571 32.7503 26.0197 33.0375 25.356 33.25C24.7207 33.4588 24.0567 33.5668 23.388 33.57C22.756 33.57 22.1613 33.4593 21.604 33.238C21.044 33.018 20.5306 32.7193 20.064 32.342C19.5771 31.972 19.1542 31.5247 18.812 31.018C18.4453 30.5113 18.134 29.9726 17.878 29.402C17.494 28.546 17.428 28.242 17.294 27.636C17.16 27.03 17.092 26.438 17.092 25.858C17.092 25.018 17.232 24.1546 17.512 23.268C17.932 21.938 18.182 21.52 18.676 20.686C19.17 19.852 19.75 19.06 20.422 18.316C21.0718 17.5904 21.7987 16.9379 22.59 16.37Z" fill="white"/>
</svg>
