<svg width="48" height="48" viewBox="0 0 48 48" fill="none" xmlns="http://www.w3.org/2000/svg">
<g clip-path="url(#clip0_427_704)">
<path d="M48 37.176C47.3014 37.4398 46.5304 37.439 45.8323 37.1738C45.1342 36.9086 44.5572 36.3972 44.21 35.736L37.31 26.194L36.31 24.86L28.304 35.748C27.978 36.3818 27.4323 36.875 26.769 37.1356C26.1057 37.3962 25.3702 37.4063 24.7 37.164L35.016 23.324L25.42 10.822C26.11 10.5734 26.8646 10.5701 27.5567 10.8127C28.2489 11.0553 28.8363 11.529 29.22 12.154L36.372 21.814L43.564 12.194C43.8926 11.5716 44.4384 11.0916 45.0977 10.8453C45.757 10.599 46.4838 10.6035 47.14 10.858L43.416 15.8L38.372 22.366C38.232 22.491 38.1199 22.6441 38.0431 22.8154C37.9664 22.9867 37.9267 23.1723 37.9267 23.36C37.9267 23.5478 37.9664 23.7333 38.0431 23.9046C38.1199 24.0759 38.232 24.2291 38.372 24.354L47.98 37.178L48 37.176ZM0.00402621 23.152L0.844026 19.002C3.15203 10.796 12.56 7.38205 19.032 12.462C22.822 15.44 23.768 19.656 23.582 24.408H2.23203C1.88603 32.894 8.01003 38.018 15.84 35.4C17.1092 34.9428 18.2452 34.1781 19.1463 33.1743C20.0475 32.1705 20.6858 30.959 21.004 29.648C21.418 28.316 22.1 28.088 23.352 28.472C23.143 30.0967 22.5684 31.6528 21.6716 33.0235C20.7748 34.3942 19.579 35.5439 18.174 36.386C15.853 37.6563 13.1897 38.1599 10.5652 37.8247C7.9406 37.4896 5.48931 36.3328 3.56203 34.52C1.65671 32.3744 0.5049 29.6649 0.282026 26.804C0.282026 26.334 0.122026 25.894 0.0140262 25.472C0.00427126 24.6994 -0.000395505 23.9267 2.6213e-05 23.154L0.00402621 23.152ZM2.25803 22.58H21.566C21.446 16.428 17.564 12.064 12.386 12.024C6.62203 11.944 2.49803 16.212 2.24403 22.552L2.25803 22.58Z" fill="white"/>
</g>
<defs>
<clipPath id="clip0_427_704">
<rect width="48" height="48" fill="white"/>
</clipPath>
</defs>
</svg>
