<svg width="35" height="48" viewBox="0 0 35 48" fill="none" xmlns="http://www.w3.org/2000/svg">
<path d="M33.9803 9.4093L30.89 44.0278L16.9993 47.8787L3.14684 44.0331L0.0598145 9.4093H33.9803Z" fill="#E44D26"/>
<path d="M17.02 44.9352L28.2444 41.8234L30.8851 12.2402H17.02V44.9352Z" fill="#F16529"/>
<path d="M11.0127 20.7333H17.02V16.4868H6.37183L6.47341 17.6261L7.51718 29.3282H17.02V25.0817H11.4008L11.0127 20.7333ZM11.9697 31.4515H7.70692L8.3018 38.1191L17.0004 40.5338L17.02 40.5284V36.1103L17.0014 36.1152L12.2721 34.8382L11.9697 31.4515Z" fill="#EBEBEB"/>
<path d="M3.2157 0H5.3737V2.13208H7.34782V0H9.50596V6.45647H7.34795V4.29447H5.37384V6.45647H3.21583L3.2157 0ZM12.3437 2.14112H10.4442V0H16.4028V2.14112H14.5021V6.45647H12.3441V2.14112H12.3437ZM17.3484 0H19.5986L20.9827 2.26863L22.3656 0H24.6167V6.45647H22.4674V3.25629L20.9827 5.55191H20.9455L19.4599 3.25629V6.45647H17.3484V0ZM25.6906 0H27.8493V4.32239H30.884V6.45647H25.6905L25.6906 0Z" fill="black"/>
<path d="M17.0054 29.3282H22.2345L21.7414 34.8356L17.0052 36.1139V40.5318L25.7108 38.1191L25.7746 37.4017L26.7727 26.222L26.8762 25.0817H17.0054V29.3282ZM17.0054 20.7229V20.7333H27.2626L27.3477 19.7789L27.5413 17.6261L27.6428 16.4868H17.0054V20.7229Z" fill="white"/>
</svg>

