<svg width="38" height="42" viewBox="0 0 38 42" fill="none" xmlns="http://www.w3.org/2000/svg">
<path d="M18.9742 0.258789C18.5879 0.258789 18.2013 0.362664 17.866 0.568539L1.84041 9.81829C1.14478 10.2045 0.733032 10.9515 0.733032 11.7248V30.2235C0.733032 31.0223 1.14478 31.7442 1.84041 32.1308L17.866 41.3802C18.2013 41.5864 18.5875 41.6892 18.9742 41.6892C19.3604 41.6892 19.7474 41.5864 20.0823 41.3802L36.1079 32.1308C36.8035 31.7445 37.216 30.9968 37.216 30.2239V11.7248C37.216 10.926 36.8035 10.2045 36.1079 9.81829L20.0823 0.568539C19.7485 0.365181 19.365 0.258109 18.9742 0.259164V0.258789ZM18.9742 1.03204C19.2318 1.03204 19.4639 1.10966 19.6957 1.23829L35.7213 10.488C35.94 10.6187 36.1213 10.8035 36.2476 11.0247C36.374 11.2459 36.4412 11.4959 36.4428 11.7507V30.2494C36.4428 30.765 36.1593 31.2544 35.7213 31.512L19.6957 40.7618C19.4639 40.8904 19.2318 40.968 18.9742 40.968C18.7193 40.9669 18.4696 40.8955 18.2527 40.7618L2.22703 31.512C2.0084 31.3814 1.82715 31.1966 1.70076 30.9755C1.57438 30.7544 1.50714 30.5045 1.50553 30.2498V11.7507C1.50553 11.235 1.78903 10.7457 2.22703 10.488L18.2527 1.23829C18.4848 1.10966 18.7424 1.03204 18.9742 1.03204ZM19.0642 8.29766C18.7293 8.71016 18.1627 9.14816 18.781 10.0755C18.9873 10.3073 19.09 10.797 19.0645 10.9515C19.0645 10.9515 19.9919 10.4108 19.4249 9.43166C19.09 8.91641 18.9352 8.47804 19.0642 8.29766ZM18.034 9.25129C17.8019 9.53479 17.4415 9.81791 17.8537 10.4622C17.9823 10.5908 18.0337 10.926 18.0337 11.0292C18.0337 11.0292 18.6524 10.6684 18.2662 9.99866C18.034 9.66379 17.9313 9.35441 18.034 9.25129ZM16.1527 11.4675C16.0845 11.4676 16.0191 11.4948 15.9709 11.543C15.9226 11.5912 15.8955 11.6566 15.8954 11.7248C15.8954 12.6008 16.024 15.615 17.3125 17.0835C17.3351 17.1088 17.3629 17.1288 17.394 17.1422C17.425 17.1557 17.4587 17.1621 17.4925 17.1612H19.657C19.6909 17.162 19.7245 17.1555 19.7556 17.1422C19.7867 17.1288 19.8146 17.109 19.8374 17.0839C21.1259 15.6409 21.2545 12.6263 21.2545 11.7248C21.2542 11.6565 21.2269 11.5911 21.1786 11.5428C21.1303 11.4946 21.0648 11.4674 20.9965 11.4672L16.1527 11.4675ZM16.9 12.2655H20.3013C20.3696 12.2658 20.435 12.2931 20.4833 12.3415C20.5315 12.3898 20.5587 12.4552 20.5589 12.5235C20.5589 13.245 20.4299 15.2798 19.5539 16.3365C19.4767 16.3879 19.4253 16.4142 19.348 16.4142H17.8278C17.7939 16.4152 17.7602 16.4087 17.729 16.3953C17.6978 16.3819 17.67 16.3619 17.6474 16.3365C16.7714 15.306 16.6687 13.245 16.6424 12.5235C16.6426 12.4552 16.6698 12.3898 16.7181 12.3415C16.7663 12.2931 16.8317 12.2658 16.9 12.2655ZM20.1464 14.0175C20.1464 14.0175 20.1209 14.25 19.5025 14.4818C18.6524 14.7908 17.158 14.5845 17.158 14.5845C17.2867 15.1257 17.4925 15.6409 17.8019 16.0275C17.8278 16.0789 17.9047 16.1044 17.9564 16.1044H19.2449C19.2962 16.1044 19.3477 16.0788 19.3994 16.0275C19.8374 15.5123 20.0437 14.7132 20.1464 14.0175ZM2.57503 15.2802V15.564H15.7413C15.7413 15.4609 15.7154 15.3833 15.7154 15.2802H2.57503ZM21.4608 15.2802C21.4608 15.3833 21.4349 15.4609 21.4349 15.564H35.425V15.2802H21.4608ZM12.958 18.0885C12.5718 18.0885 12.2107 18.1399 11.8758 18.2948C11.5409 18.4234 11.2574 18.6297 11.0257 18.8614C10.782 19.1043 10.5893 19.3933 10.4587 19.7115C10.33 20.0468 10.2532 20.3813 10.2532 20.742V20.7683C10.2532 21.1287 10.33 21.4898 10.4587 21.7992C10.5877 22.1339 10.768 22.4173 10.9998 22.6493C11.2315 22.881 11.5154 23.0873 11.8503 23.2159C12.1952 23.3508 12.5622 23.4206 12.9325 23.4218C13.3188 23.4218 13.6792 23.3708 14.0144 23.2159C14.3493 23.0873 14.6332 22.881 14.8649 22.6493C15.1085 22.4064 15.3013 22.1174 15.4319 21.7992C15.5605 21.4639 15.6374 21.1287 15.6374 20.7679V20.742C15.6361 20.3885 15.5663 20.0385 15.4319 19.7115C15.3029 19.3768 15.1225 19.0934 14.8908 18.8614C14.659 18.6297 14.3752 18.4234 14.0403 18.2948C13.6954 18.1598 13.3284 18.0899 12.958 18.0885ZM20.0692 18.0885C19.6567 18.0885 19.3222 18.1658 18.9873 18.2948C18.6524 18.4234 18.3685 18.6297 18.1368 18.8614C17.9098 19.1123 17.7268 19.3997 17.5957 19.7115C17.4611 20.0385 17.3912 20.3885 17.3898 20.742V20.7683C17.3898 21.1287 17.4667 21.4639 17.5957 21.7992C17.7244 22.1339 17.9048 22.4173 18.1368 22.6493C18.3685 22.881 18.6524 23.0873 18.9618 23.2159C19.2878 23.3532 19.6382 23.4233 19.9919 23.4218C20.224 23.4218 20.4558 23.4218 20.6875 23.3704C20.8679 23.3449 21.0738 23.2677 21.2287 23.1904C21.3832 23.1128 21.5377 23.0352 21.6922 22.9065C21.8467 22.7779 21.9757 22.6744 22.1047 22.5199L21.5122 21.9274C21.28 22.1337 21.0483 22.2882 20.842 22.4172C20.6358 22.5458 20.353 22.5972 20.0437 22.5972C19.8119 22.5972 19.5794 22.5203 19.3735 22.443C19.1673 22.3658 18.9869 22.2109 18.8324 22.0564C18.6779 21.876 18.5489 21.6957 18.4717 21.4639C18.3944 21.2314 18.343 20.9997 18.343 20.742V20.7169C18.343 20.4848 18.3944 20.2527 18.4717 20.0205C18.5748 19.8143 18.6779 19.6088 18.8324 19.4543C18.9907 19.2971 19.1735 19.1667 19.3735 19.068C19.5798 18.9645 19.786 18.9132 20.0437 18.9132C20.353 18.9132 20.6099 18.9649 20.8424 19.0935C21.0729 19.2248 21.2889 19.3802 21.4867 19.557L22.0792 18.8873C21.9502 18.7587 21.8212 18.6555 21.6922 18.5524C21.5635 18.4493 21.409 18.372 21.2545 18.2948C21.0745 18.243 20.9197 18.1917 20.7134 18.1403C20.5072 18.114 20.3009 18.0885 20.0692 18.0885ZM32.179 18.1658L29.9114 23.3445H30.8392L31.3799 22.1082H33.8017L34.3177 23.3449H35.2702L33.0033 18.1662L32.179 18.1658ZM3.21891 18.192V23.3708H4.12078V19.6857L5.71828 22.0819H5.74416L7.36716 19.6605V23.3449H8.26903V18.1913H7.31578L5.74378 20.6138L4.17216 18.192H3.21891ZM23.9084 18.192V23.3445H24.8099V21.1804H27.2834V23.3449H28.1853V18.1913H27.2834V20.3299H24.8099V18.1913L23.9084 18.192ZM12.9325 18.9128C13.1903 18.9128 13.4222 18.9643 13.6282 19.0673C13.8283 19.166 14.011 19.2966 14.1693 19.4539C14.3238 19.6343 14.4528 19.8143 14.53 20.0464C14.6073 20.2782 14.6587 20.5099 14.6587 20.7675V20.7938C14.6587 21.0252 14.6073 21.2573 14.53 21.489C14.4269 21.6953 14.3238 21.9015 14.1693 22.056C14.011 22.2132 13.8282 22.3436 13.6282 22.4423C13.4219 22.5455 13.19 22.5972 12.9325 22.5972C12.7008 22.5972 12.4428 22.5458 12.2365 22.4427C12.0366 22.3439 11.8539 22.2133 11.6958 22.056C11.5413 21.8757 11.4127 21.6953 11.3354 21.4635C11.2578 21.231 11.206 20.9993 11.206 20.7417V20.7165C11.206 20.4844 11.2578 20.2523 11.3354 20.0202C11.4382 19.8139 11.5417 19.6084 11.6958 19.4539C11.854 19.2968 12.0366 19.1663 12.2365 19.0677C12.443 18.9644 12.675 18.9128 12.9325 18.9128ZM32.5908 19.2477L33.4668 21.3087H31.7148L32.5908 19.2477ZM2.57503 24.9679V25.251H35.425V24.9679H2.57503Z" fill="white"/>
</svg>
