<svg width="48" height="48" viewBox="0 0 48 48" fill="none" xmlns="http://www.w3.org/2000/svg">
<path d="M26.2323 14.7409C25.6038 14.7671 24.5418 14.9359 24.5418 15.0071C24.5418 15.0368 25.2903 15.4118 25.3477 15.4118C25.4002 15.4118 26.2691 15.8453 26.4622 15.9653C26.7142 16.1265 26.8946 16.2728 26.8417 16.2728C26.808 16.2728 25.9158 15.9274 25.5776 15.7823C25.3023 15.6664 24.1582 15.3251 23.6013 15.1935C23.2998 15.123 23.1723 15.0968 22.6597 15.003C21.9037 14.865 21.0146 14.8568 20.628 14.9839C20.0741 15.1639 19.9496 15.3851 19.9496 16.2011C19.9496 16.6511 19.9717 16.8413 20.0696 17.2455C20.1123 17.4214 20.2323 17.808 20.2882 17.9385C20.3043 17.9798 20.3568 18.1073 20.4007 18.2198C20.4461 18.3311 20.5826 18.6195 20.7026 18.8554C21.3765 20.193 22.3856 21.3079 23.808 22.2889C24.2565 22.5964 25.4752 23.1795 25.9642 23.319C26.0887 23.3528 26.13 23.4229 26.0287 23.4229C25.9162 23.4229 24.885 23.1386 24.6738 23.0494C24.5935 23.0138 24.512 22.981 24.4293 22.9511C23.6955 22.6553 22.758 22.0459 21.9828 21.3529C21.1336 20.5971 20.4546 19.6695 19.9908 18.6315C19.6935 17.9603 19.4913 17.1784 19.4415 16.497C19.4122 16.1074 19.3815 16.0136 19.2802 16.0181C19.2465 16.0181 18.9258 16.0065 18.5726 15.9874C17.6118 15.9461 16.2993 16.0519 15 16.2761C12.5156 16.6991 9.8351 17.6764 7.0766 19.1659C6.61785 19.4143 6.16462 19.6727 5.71722 19.941C5.66472 19.9718 5.49897 20.0726 5.34822 20.1664C5.1986 20.2601 5.0216 20.3644 4.9571 20.4053C4.8146 20.4889 3.23735 21.5595 3.04835 21.7016C2.97785 21.753 2.78172 21.8993 2.61635 22.0196C1.86747 22.5731 0.237347 23.9033 0.143597 24.0383C0.0982223 24.1058 0.169847 24.1395 0.266597 24.1058C0.316472 24.0863 0.443972 24.06 0.546347 24.0458C0.651722 24.0293 0.922847 23.9591 1.14822 23.8845C1.37697 23.8125 1.62297 23.7379 1.69347 23.7188C2.25147 23.5883 2.47722 23.5429 2.80347 23.4945C2.9516 23.4758 3.16985 23.442 3.29285 23.4229C4.8221 23.1986 5.55185 23.1431 6.23285 23.1941C7.71222 23.3141 9.12747 23.5665 9.93747 23.8534C10.5438 24.0716 11.7772 24.7384 12.3195 25.1381C12.633 25.3744 13.6406 26.3775 13.8633 26.6805C14.0358 26.9209 14.2278 27.1305 14.2732 27.1305C14.2882 27.1305 14.307 26.3655 14.3115 25.434L14.3216 23.742L16.3023 23.7308C17.8608 23.7233 18.2928 23.7349 18.3195 23.7683C18.3573 23.817 18.4481 23.9783 18.7455 24.5273C19.0282 25.056 19.1673 25.311 19.254 25.4633C19.299 25.5469 19.4032 25.7404 19.4913 25.8941C19.5731 26.0479 19.7268 26.3321 19.8326 26.5268C19.938 26.7218 20.0242 26.8871 20.0242 26.8943C20.0242 26.928 20.1795 27.1305 20.2061 27.1305C20.2207 27.1305 20.2586 27.0731 20.2848 27.0105C20.3145 26.943 20.3936 26.7934 20.4581 26.6805C20.5256 26.568 20.6456 26.3483 20.7288 26.1945C20.8125 26.0408 20.9253 25.827 20.9853 25.7258C21.1507 25.4295 21.3236 25.1089 21.4672 24.8468C21.6195 24.5571 21.7763 24.2698 21.9375 23.985C21.9858 23.8913 22.0462 23.793 22.065 23.7683C22.0957 23.7345 22.5393 23.7229 24.1436 23.73L26.1798 23.7416L26.1911 27.048C26.1986 29.6524 26.2091 30.3499 26.2473 30.3499C26.2691 30.3454 26.4198 30.2588 26.5751 30.1504C26.7933 29.9981 26.8871 29.9044 26.9883 29.7315C27.2182 29.3389 27.87 28.7209 28.3065 28.4805C28.837 28.1874 29.4076 27.9734 30 27.8453C30.6018 27.7178 30.7792 27.699 32.1461 27.6503C34.6406 27.564 35.0096 27.549 35.0287 27.5303C35.0403 27.5201 35.007 27.4219 34.9571 27.309C34.9046 27.2006 34.8146 26.9985 34.7505 26.8639C34.5131 26.3513 34.5131 26.1795 34.7621 25.9279C34.9308 25.7516 35.367 25.5979 36.117 25.4486C36.2403 25.4224 36.3956 25.3886 36.4582 25.3669C36.5231 25.3478 36.6018 25.3331 36.6356 25.3331C36.7308 25.3331 37.4793 25.1498 37.6376 25.0898C37.7463 25.0448 38.3336 24.9173 39.0337 24.7823C39.3382 24.7223 40.1295 24.5655 40.7842 24.4335C41.1986 24.3518 41.631 24.2651 41.7435 24.243C41.8563 24.2213 42.0191 24.1875 42.1012 24.1729C42.1845 24.1541 42.2928 24.1305 42.3457 24.123C42.3982 24.1129 42.6622 24.06 42.93 24.0045C43.1307 23.9605 43.3326 23.9214 43.5352 23.8871C43.7242 23.8695 45.1436 23.5283 45.4702 23.4229C45.9903 23.2541 46.1441 23.187 46.4722 22.9673C46.8251 22.7273 46.9233 22.5968 47.2732 21.8993C47.6617 21.1245 47.7172 20.994 47.8271 20.6674C47.9958 20.1476 47.9853 19.9496 47.7701 19.7314C47.619 19.5821 47.2953 19.4284 47.0595 19.3946C46.8825 19.3725 46.8588 19.3796 46.7726 19.4734C46.7197 19.5296 46.6743 19.5968 46.6743 19.62C46.6743 19.6538 46.6143 19.818 46.4456 20.2223C46.4295 20.2635 46.3961 20.3644 46.3695 20.4461C46.3477 20.5298 46.302 20.6456 46.2757 20.7086C46.2273 20.8136 46.2232 20.7949 46.242 20.5035C46.2611 20.2148 46.3095 19.9718 46.4193 19.6039C46.4385 19.5338 46.4647 19.4138 46.4752 19.3388L46.494 19.2038L46.1028 19.0474C45.696 18.8786 45.3453 18.7324 45.1436 18.6416C45.0746 18.6169 44.9062 18.5494 44.7671 18.4965C44.6235 18.444 44.4506 18.3765 44.379 18.3428C44.2484 18.285 44.1165 18.2304 43.9833 18.1789C43.7313 18.0806 42.8508 17.7818 42.1008 17.5459C41.6002 17.3923 41.0988 17.2411 40.5967 17.0921C40.42 17.0472 40.2442 16.9987 40.0695 16.9466C40.0095 16.9305 39.8613 16.8896 39.7485 16.8604C39.0862 16.6774 38.9137 16.6316 38.676 16.5641C38.545 16.5264 38.4132 16.4914 38.2807 16.4591C38.2091 16.4415 38.0145 16.3961 37.8487 16.3549C37.5585 16.2833 36.3427 16.0035 35.6835 15.8524L35.2132 15.744C35.13 15.7253 34.9807 15.6956 34.875 15.6765C34.7726 15.6578 34.5585 15.6165 34.4032 15.5828C34.2495 15.5539 33.9183 15.489 33.6693 15.4481C33.4218 15.4043 33.1245 15.3518 33.0116 15.3326C31.9717 15.1451 31.9016 15.1346 30.0378 14.9284C28.8896 14.7979 27.3453 14.688 26.9692 14.7071C26.9092 14.7071 26.5755 14.7218 26.2323 14.7409ZM21.8805 16.5863C22.875 16.9088 23.8417 17.3468 24.504 17.7743C25.0312 18.1144 25.686 18.6578 25.8633 18.9008L25.938 19.002L25.7958 18.9461C25.7171 18.9124 25.5513 18.8411 25.4268 18.7808C24.7646 18.4733 24.693 18.4481 24.693 18.5156C24.693 18.5333 24.8467 18.7808 25.0312 19.0575C25.2202 19.3388 25.3695 19.5863 25.3695 19.6088C25.3695 19.6275 25.2993 19.5968 25.2112 19.5368C24.873 19.305 24.0787 18.9713 24.0337 19.0388C24.0221 19.0575 24.2662 19.368 24.5801 19.7314C24.8876 20.0948 25.1441 20.4053 25.1441 20.4289C25.1441 20.4844 25.0841 20.4769 24.7983 20.3715C24.504 20.2676 24.4293 20.256 24.4293 20.3276C24.4293 20.376 25.065 21.2329 25.317 21.5288C25.3886 21.6109 25.4456 21.69 25.4456 21.7088C25.4456 21.7984 24.564 21.2258 23.94 20.7319C23.0475 20.0201 22.185 19.065 21.7312 18.2756C21.3573 17.6306 21.2298 17.2838 21.2298 16.9013C21.2298 16.6774 21.2403 16.632 21.3236 16.5525C21.3723 16.5015 21.4335 16.4588 21.4556 16.4588C21.4777 16.4588 21.6663 16.5161 21.8805 16.5863ZM33.7646 17.9194C34.125 17.9839 34.6185 18.069 34.8558 18.1114C35.0932 18.1526 35.3831 18.2006 35.496 18.2198C35.6088 18.2419 35.7697 18.2711 35.8533 18.2899C35.9358 18.309 36.0982 18.3428 36.2111 18.369C36.5831 18.4515 36.6738 18.4703 37.2832 18.6124C37.938 18.7661 38.0816 18.7954 38.2807 18.8363C38.4506 18.87 38.619 18.9345 38.619 18.9638C38.619 18.9758 38.496 19.0474 38.3452 19.125C38.0362 19.2788 37.9717 19.2904 36.7001 19.3388C35.8346 19.3755 35.3715 19.365 34.9496 19.2975C34.0983 19.1663 33.6592 18.9274 33.3165 18.4103C33.1965 18.2344 33.1173 18.1815 32.8417 18.1114C32.7405 18.0806 32.5856 18.0394 32.5035 18.0131C32.4198 17.9869 32.2777 17.9456 32.187 17.9194C31.9158 17.8493 32.07 17.808 32.6163 17.808C32.9925 17.808 33.2565 17.8331 33.7646 17.9194ZM38.2923 23.1506C38.2615 23.158 38.2294 23.158 38.1986 23.1506C38.1723 23.1386 38.1911 23.1315 38.244 23.1315C38.2953 23.1315 38.3145 23.139 38.2927 23.1503L38.2923 23.1506ZM38.13 23.1945C38.13 23.2133 38.0861 23.2395 38.0287 23.2515C37.9117 23.2808 37.4531 23.4128 37.3023 23.4608C37.2495 23.4799 37.0796 23.5328 36.9258 23.577C36.5377 23.6895 35.5972 23.9955 35.3452 24.0938C34.8705 24.2738 33.756 24.8644 33.5992 25.0226C33.3648 25.251 33.2928 25.497 33.3281 25.9688C33.3382 26.1679 33.3648 26.4188 33.3881 26.5268C33.4335 26.763 33.4068 26.8271 33.3165 26.7101C33.2257 26.5943 33.0337 26.1754 32.9778 25.9688C32.9471 25.8765 32.9137 25.752 32.8946 25.692C32.8271 25.4794 32.8533 25.2274 32.9591 25.0751C33.1012 24.8569 33.6138 24.5096 34.2157 24.2213C34.5015 24.0821 35.3332 23.7975 36.0982 23.5736C36.252 23.5286 36.4218 23.4758 36.4747 23.4611C37.0166 23.2778 38.13 23.1019 38.13 23.1945ZM26.2252 23.4461C26.2132 23.4566 26.1798 23.4611 26.1532 23.4491C26.1225 23.439 26.1345 23.4274 26.1753 23.4274C26.2177 23.4229 26.2398 23.4349 26.2252 23.4461Z" fill="#850000"/>
<path d="M18.3312 30.687V33.3075H20.2062C21.6139 33.3075 22.0913 33.2963 22.1251 33.2625C22.1821 33.2063 22.1941 28.0665 22.1367 28.0665C22.1179 28.0665 22.0917 28.0958 22.0797 28.1295C22.0647 28.1633 21.6548 28.8034 21.1654 29.5519C20.3907 30.7354 20.1754 31.0238 20.1754 30.8775C20.1754 30.8513 18.8922 28.8488 18.5641 28.365C18.5204 28.3022 18.4817 28.2361 18.4482 28.1674C18.4174 28.1104 18.3807 28.0662 18.3619 28.0662C18.3458 28.0662 18.3312 29.2455 18.3312 30.687Z" fill="#850000"/>
</svg>
